<svg id="visual" viewBox="0 0 1700.698 825.122" width="1700.698" height="825.122" xmlns="http://www.w3.org/2000/svg" xmlns:xlink="http://www.w3.org/1999/xlink" version="1.1"><g stroke-width="1" stroke-linejoin="bevel"><path d="M864.3 425.5L813.3 559.4L905.8 469.5Z" fill="#654a8d" stroke="#654a8d"></path><path d="M864.3 425.5L768.9 457.5L813.3 559.4Z" fill="#5f4784" stroke="#5f4784"></path><path d="M813.3 559.4L932.8 550.4L905.8 469.5Z" fill="#654a8d" stroke="#654a8d"></path><path d="M817.3 284.6L684.9 397.6L768.9 457.5Z" fill="#614887" stroke="#614887"></path><path d="M656.4 622.4L746.9 661.4L813.3 559.4Z" fill="#654a8d" stroke="#654a8d"></path><path d="M656.4 622.4L813.3 559.4L768.9 457.5Z" fill="#674b90" stroke="#674b90"></path><path d="M813.3 559.4L838.3 763.2L932.8 550.4Z" fill="#614887" stroke="#614887"></path><path d="M684.9 397.6L663.4 402.6L768.9 457.5Z" fill="#614887" stroke="#614887"></path><path d="M922.3 253.7L817.3 284.6L864.3 425.5Z" fill="#63498a" stroke="#63498a"></path><path d="M864.3 425.5L817.3 284.6L768.9 457.5Z" fill="#5e4681" stroke="#5e4681"></path><path d="M684.9 397.6L640.4 279.7L663.4 402.6Z" fill="#674b90" stroke="#674b90"></path><path d="M663.4 402.6L656.4 622.4L768.9 457.5Z" fill="#6a4c97" stroke="#6a4c97"></path><path d="M1039.8 318.6L864.3 425.5L905.8 469.5Z" fill="#654a8d" stroke="#654a8d"></path><path d="M1039.8 318.6L922.3 253.7L864.3 425.5Z" fill="#5e4681" stroke="#5e4681"></path><path d="M838.3 763.2L1045.3 644.2L932.8 550.4Z" fill="#5f4784" stroke="#5f4784"></path><path d="M1146.3 434.5L1039.8 318.6L905.8 469.5Z" fill="#6c4d9a" stroke="#6c4d9a"></path><path d="M656.4 622.4L723.9 724.2L746.9 661.4Z" fill="#63498a" stroke="#63498a"></path><path d="M746.9 661.4L838.3 763.2L813.3 559.4Z" fill="#5c457e" stroke="#5c457e"></path><path d="M1146.3 434.5L905.8 469.5L932.8 550.4Z" fill="#684b94" stroke="#684b94"></path><path d="M787.3 174.9L720.9 249.7L817.3 284.6Z" fill="#5f4784" stroke="#5f4784"></path><path d="M817.3 284.6L720.9 249.7L684.9 397.6Z" fill="#684b94" stroke="#684b94"></path><path d="M723.9 724.2L838.3 763.2L746.9 661.4Z" fill="#674b90" stroke="#674b90"></path><path d="M720.9 249.7L640.4 279.7L684.9 397.6Z" fill="#684b94" stroke="#684b94"></path><path d="M426.4 584.4L626.4 692.2L656.4 622.4Z" fill="#5e4681" stroke="#5e4681"></path><path d="M656.4 622.4L626.4 692.2L723.9 724.2Z" fill="#654a8d" stroke="#654a8d"></path><path d="M770.9 825.1L812.3 825.1L838.3 763.2Z" fill="#5f4784" stroke="#5f4784"></path><path d="M547.4 411.5L656.4 622.4L663.4 402.6Z" fill="#5c457e" stroke="#5c457e"></path><path d="M1235.8 289.6L1046.3 286.6L1039.8 318.6Z" fill="#6a4c97" stroke="#6a4c97"></path><path d="M1039.8 318.6L1046.3 286.6L922.3 253.7Z" fill="#674b90" stroke="#674b90"></path><path d="M532.9 385.6L547.4 411.5L663.4 402.6Z" fill="#5c457e" stroke="#5c457e"></path><path d="M980.8 110.9L902.8 188.7L922.3 253.7Z" fill="#614887" stroke="#614887"></path><path d="M922.3 253.7L902.8 188.7L817.3 284.6Z" fill="#5f4784" stroke="#5f4784"></path><path d="M1045.3 644.2L1146.3 434.5L932.8 550.4Z" fill="#614887" stroke="#614887"></path><path d="M902.8 188.7L787.3 174.9L817.3 284.6Z" fill="#614887" stroke="#614887"></path><path d="M720.9 249.7L672.9 75.9L640.4 279.7Z" fill="#684b94" stroke="#684b94"></path><path d="M640.4 279.7L532.9 385.6L663.4 402.6Z" fill="#5f4784" stroke="#5f4784"></path><path d="M547.4 411.5L458.9 513.5L656.4 622.4Z" fill="#6c4d9a" stroke="#6c4d9a"></path><path d="M770.9 825.1L838.3 763.2L723.9 724.2Z" fill="#654a8d" stroke="#654a8d"></path><path d="M838.3 763.2L931.8 825.1L1045.3 644.2Z" fill="#614887" stroke="#614887"></path><path d="M650.4 825.1L770.9 825.1L723.9 724.2Z" fill="#654a8d" stroke="#654a8d"></path><path d="M1144.8 654.4L1160.3 609.4L1045.3 644.2Z" fill="#6a4c97" stroke="#6a4c97"></path><path d="M1045.3 644.2L1160.3 609.4L1146.3 434.5Z" fill="#5a447b" stroke="#5a447b"></path><path d="M812.3 825.1L931.8 825.1L838.3 763.2Z" fill="#5f4784" stroke="#5f4784"></path><path d="M1043.8 772.2L1144.8 654.4L1045.3 644.2Z" fill="#5a447b" stroke="#5a447b"></path><path d="M931.8 825.1L1043.8 772.2L1045.3 644.2Z" fill="#5f4784" stroke="#5f4784"></path><path d="M1160.3 609.4L1185.8 436.5L1146.3 434.5Z" fill="#684b94" stroke="#684b94"></path><path d="M1146.3 434.5L1235.8 289.6L1039.8 318.6Z" fill="#5f4784" stroke="#5f4784"></path><path d="M411.4 475.5L458.9 513.5L547.4 411.5Z" fill="#5f4784" stroke="#5f4784"></path><path d="M471.9 825.1L650.4 825.1L626.4 692.2Z" fill="#5e4681" stroke="#5e4681"></path><path d="M626.4 692.2L650.4 825.1L723.9 724.2Z" fill="#6a4c97" stroke="#6a4c97"></path><path d="M535.4 115.9L501.9 296.7L640.4 279.7Z" fill="#6a4c97" stroke="#6a4c97"></path><path d="M640.4 279.7L501.9 296.7L532.9 385.6Z" fill="#63498a" stroke="#63498a"></path><path d="M532.9 385.6L411.4 475.5L547.4 411.5Z" fill="#614887" stroke="#614887"></path><path d="M1046.3 286.6L980.8 110.9L922.3 253.7Z" fill="#674b90" stroke="#674b90"></path><path d="M902.8 188.7L799.9 0L787.3 174.9Z" fill="#614887" stroke="#614887"></path><path d="M1165.3 168.7L980.8 110.9L1046.3 286.6Z" fill="#5a447b" stroke="#5a447b"></path><path d="M419.9 581.4L426.4 584.4L458.9 513.5Z" fill="#684b94" stroke="#684b94"></path><path d="M458.9 513.5L426.4 584.4L656.4 622.4Z" fill="#674b90" stroke="#674b90"></path><path d="M363.4 364.6L411.4 475.5L532.9 385.6Z" fill="#63498a" stroke="#63498a"></path><path d="M411.4 475.5L419.9 581.4L458.9 513.5Z" fill="#5e4681" stroke="#5e4681"></path><path d="M426.4 584.4L448.9 744.2L626.4 692.2Z" fill="#654a8d" stroke="#654a8d"></path><path d="M931.8 825.1L1115.3 825.1L1043.8 772.2Z" fill="#5c457e" stroke="#5c457e"></path><path d="M1043.8 772.2L1115.3 825.1L1144.8 654.4Z" fill="#63498a" stroke="#63498a"></path><path d="M1144.8 654.4L1282.3 711.2L1160.3 609.4Z" fill="#5a447b" stroke="#5a447b"></path><path d="M1338.3 280.7L1235.8 289.6L1392.3 461.5Z" fill="#5e4681" stroke="#5e4681"></path><path d="M1185.8 436.5L1235.8 289.6L1146.3 434.5Z" fill="#6a4c97" stroke="#6a4c97"></path><path d="M1334.3 652.4L1185.8 436.5L1160.3 609.4Z" fill="#674b90" stroke="#674b90"></path><path d="M787.3 174.9L672.9 75.9L720.9 249.7Z" fill="#684b94" stroke="#684b94"></path><path d="M799.9 0L672.9 75.9L787.3 174.9Z" fill="#5e4681" stroke="#5e4681"></path><path d="M1235.8 289.6L1210.8 234.7L1046.3 286.6Z" fill="#5c457e" stroke="#5c457e"></path><path d="M1210.8 234.7L1165.3 168.7L1046.3 286.6Z" fill="#5e4681" stroke="#5e4681"></path><path d="M297.4 685.2L448.9 744.2L426.4 584.4Z" fill="#5c457e" stroke="#5c457e"></path><path d="M672.9 75.9L535.4 115.9L640.4 279.7Z" fill="#63498a" stroke="#63498a"></path><path d="M501.9 296.7L363.4 364.6L532.9 385.6Z" fill="#6c4d9a" stroke="#6c4d9a"></path><path d="M1115.3 825.1L1263.8 736.2L1144.8 654.4Z" fill="#684b94" stroke="#684b94"></path><path d="M407.4 210.7L363.4 364.6L501.9 296.7Z" fill="#63498a" stroke="#63498a"></path><path d="M411.4 475.5L281 540.4L419.9 581.4Z" fill="#654a8d" stroke="#654a8d"></path><path d="M419.9 581.4L297.4 685.2L426.4 584.4Z" fill="#654a8d" stroke="#654a8d"></path><path d="M922.3 0L902.8 188.7L980.8 110.9Z" fill="#5f4784" stroke="#5f4784"></path><path d="M922.3 0L799.9 0L902.8 188.7Z" fill="#5a447b" stroke="#5a447b"></path><path d="M672.9 75.9L557.9 68.9L535.4 115.9Z" fill="#5e4681" stroke="#5e4681"></path><path d="M1228.8 88.9L1153.3 111.9L1165.3 168.7Z" fill="#5e4681" stroke="#5e4681"></path><path d="M1165.3 168.7L1153.3 111.9L980.8 110.9Z" fill="#654a8d" stroke="#654a8d"></path><path d="M448.9 744.2L471.9 825.1L626.4 692.2Z" fill="#5a447b" stroke="#5a447b"></path><path d="M1263.8 736.2L1282.3 711.2L1144.8 654.4Z" fill="#5f4784" stroke="#5f4784"></path><path d="M942.8 0L922.3 0L980.8 110.9Z" fill="#6a4c97" stroke="#6a4c97"></path><path d="M1023.3 0L942.8 0L980.8 110.9Z" fill="#654a8d" stroke="#654a8d"></path><path d="M675.4 0L557.9 68.9L672.9 75.9Z" fill="#684b94" stroke="#684b94"></path><path d="M535.4 115.9L407.4 210.7L501.9 296.7Z" fill="#684b94" stroke="#684b94"></path><path d="M316.4 183.9L407.4 210.7L462.9 0Z" fill="#684b94" stroke="#684b94"></path><path d="M799.9 0L675.4 0L672.9 75.9Z" fill="#6c4d9a" stroke="#6c4d9a"></path><path d="M1115.3 825.1L1237.8 825.1L1263.8 736.2Z" fill="#5f4784" stroke="#5f4784"></path><path d="M1263.8 736.2L1391.7 750.2L1282.3 711.2Z" fill="#654a8d" stroke="#654a8d"></path><path d="M1411.7 618.4L1334.3 652.4L1391.7 750.2Z" fill="#5e4681" stroke="#5e4681"></path><path d="M1282.3 711.2L1334.3 652.4L1160.3 609.4Z" fill="#5e4681" stroke="#5e4681"></path><path d="M1153.3 111.9L1023.3 0L980.8 110.9Z" fill="#63498a" stroke="#63498a"></path><path d="M1235.8 289.6L1338.3 280.7L1210.8 234.7Z" fill="#674b90" stroke="#674b90"></path><path d="M1210.8 234.7L1263.3 147.9L1165.3 168.7Z" fill="#63498a" stroke="#63498a"></path><path d="M1392.3 461.5L1235.8 289.6L1185.8 436.5Z" fill="#5f4784" stroke="#5f4784"></path><path d="M1338.3 280.7L1263.3 147.9L1210.8 234.7Z" fill="#5f4784" stroke="#5f4784"></path><path d="M1153.3 111.9L1157.8 0L1023.3 0Z" fill="#5e4681" stroke="#5e4681"></path><path d="M1334.3 652.4L1392.3 461.5L1185.8 436.5Z" fill="#6c4d9a" stroke="#6c4d9a"></path><path d="M1392.3 461.5L1353.3 283.6L1338.3 280.7Z" fill="#684b94" stroke="#684b94"></path><path d="M1338.3 280.7L1353.3 283.6L1263.3 147.9Z" fill="#5e4681" stroke="#5e4681"></path><path d="M234 377.6L281 540.4L363.4 364.6Z" fill="#6a4c97" stroke="#6a4c97"></path><path d="M363.4 364.6L281 540.4L411.4 475.5Z" fill="#5f4784" stroke="#5f4784"></path><path d="M448.9 744.2L310.4 825.1L471.9 825.1Z" fill="#684b94" stroke="#684b94"></path><path d="M1292.3 0L1228.8 88.9L1263.3 147.9Z" fill="#6c4d9a" stroke="#6c4d9a"></path><path d="M1263.3 147.9L1228.8 88.9L1165.3 168.7Z" fill="#63498a" stroke="#63498a"></path><path d="M281 540.4L297.4 685.2L419.9 581.4Z" fill="#5e4681" stroke="#5e4681"></path><path d="M1228.8 88.9L1157.8 0L1153.3 111.9Z" fill="#5e4681" stroke="#5e4681"></path><path d="M1334.3 652.4L1411.7 618.4L1392.3 461.5Z" fill="#674b90" stroke="#674b90"></path><path d="M1391.7 750.2L1334.3 652.4L1282.3 711.2Z" fill="#654a8d" stroke="#654a8d"></path><path d="M462.9 0L407.4 210.7L535.4 115.9Z" fill="#5f4784" stroke="#5f4784"></path><path d="M407.4 210.7L262 300.7L363.4 364.6Z" fill="#5e4681" stroke="#5e4681"></path><path d="M462.9 0L535.4 115.9L557.9 68.9Z" fill="#6c4d9a" stroke="#6c4d9a"></path><path d="M1353.3 283.6L1457.7 245.7L1263.3 147.9Z" fill="#614887" stroke="#614887"></path><path d="M1392.3 461.5L1427.7 354.6L1353.3 283.6Z" fill="#674b90" stroke="#674b90"></path><path d="M1483.7 426.5L1427.7 354.6L1392.3 461.5Z" fill="#5f4784" stroke="#5f4784"></path><path d="M316.4 183.9L262 300.7L407.4 210.7Z" fill="#6a4c97" stroke="#6a4c97"></path><path d="M1379.3 825.1L1391.7 750.2L1263.8 736.2Z" fill="#674b90" stroke="#674b90"></path><path d="M262 300.7L234 377.6L363.4 364.6Z" fill="#6c4d9a" stroke="#6c4d9a"></path><path d="M281 540.4L139.5 568.4L297.4 685.2Z" fill="#5a447b" stroke="#5a447b"></path><path d="M675.4 0L462.9 0L557.9 68.9Z" fill="#63498a" stroke="#63498a"></path><path d="M173 750.2L310.4 825.1L297.4 685.2Z" fill="#5e4681" stroke="#5e4681"></path><path d="M297.4 685.2L310.4 825.1L448.9 744.2Z" fill="#674b90" stroke="#674b90"></path><path d="M1237.8 825.1L1379.3 825.1L1263.8 736.2Z" fill="#674b90" stroke="#674b90"></path><path d="M1507.2 622.4L1392.3 461.5L1411.7 618.4Z" fill="#684b94" stroke="#684b94"></path><path d="M1507.2 622.4L1483.7 426.5L1392.3 461.5Z" fill="#654a8d" stroke="#654a8d"></path><path d="M1427.7 354.6L1457.7 245.7L1353.3 283.6Z" fill="#6a4c97" stroke="#6a4c97"></path><path d="M1507.2 622.4L1411.7 618.4L1391.7 750.2Z" fill="#5f4784" stroke="#5f4784"></path><path d="M181.5 373.6L178 498.5L234 377.6Z" fill="#5a447b" stroke="#5a447b"></path><path d="M234 377.6L178 498.5L281 540.4Z" fill="#654a8d" stroke="#654a8d"></path><path d="M82.5 299.7L181.5 373.6L262 300.7Z" fill="#6a4c97" stroke="#6a4c97"></path><path d="M262 300.7L181.5 373.6L234 377.6Z" fill="#6c4d9a" stroke="#6c4d9a"></path><path d="M1555.2 270.7L1457.7 245.7L1427.7 354.6Z" fill="#6c4d9a" stroke="#6c4d9a"></path><path d="M1228.8 88.9L1292.3 0L1157.8 0Z" fill="#654a8d" stroke="#654a8d"></path><path d="M1439.7 79.9L1292.3 0L1263.3 147.9Z" fill="#674b90" stroke="#674b90"></path><path d="M1556.2 825.1L1507.2 622.4L1391.7 750.2Z" fill="#5c457e" stroke="#5c457e"></path><path d="M1379.3 825.1L1436.7 825.1L1391.7 750.2Z" fill="#674b90" stroke="#674b90"></path><path d="M58.5 495.5L139.5 568.4L178 498.5Z" fill="#63498a" stroke="#63498a"></path><path d="M178 498.5L139.5 568.4L281 540.4Z" fill="#684b94" stroke="#684b94"></path><path d="M139.5 568.4L173 750.2L297.4 685.2Z" fill="#654a8d" stroke="#654a8d"></path><path d="M462.9 0L317.4 0L316.4 183.9Z" fill="#5a447b" stroke="#5a447b"></path><path d="M316.4 183.9L167.5 94.9L262 300.7Z" fill="#5e4681" stroke="#5e4681"></path><path d="M1639.2 142.9L1439.7 79.9L1457.7 245.7Z" fill="#654a8d" stroke="#654a8d"></path><path d="M1457.7 245.7L1439.7 79.9L1263.3 147.9Z" fill="#6a4c97" stroke="#6a4c97"></path><path d="M78.5 765.2L179 825.1L173 750.2Z" fill="#6c4d9a" stroke="#6c4d9a"></path><path d="M173 750.2L179 825.1L310.4 825.1Z" fill="#6c4d9a" stroke="#6c4d9a"></path><path d="M317.4 0L276 0L316.4 183.9Z" fill="#63498a" stroke="#63498a"></path><path d="M1483.7 426.5L1555.2 270.7L1427.7 354.6Z" fill="#654a8d" stroke="#654a8d"></path><path d="M1626.2 370.6L1555.2 270.7L1483.7 426.5Z" fill="#5c457e" stroke="#5c457e"></path><path d="M1559.2 0L1433.7 0L1439.7 79.9Z" fill="#6a4c97" stroke="#6a4c97"></path><path d="M1439.7 79.9L1433.7 0L1292.3 0Z" fill="#674b90" stroke="#674b90"></path><path d="M173 78.9L167.5 94.9L316.4 183.9Z" fill="#5c457e" stroke="#5c457e"></path><path d="M181.5 373.6L58.5 495.5L178 498.5Z" fill="#5e4681" stroke="#5e4681"></path><path d="M0 361.6L58.5 495.5L181.5 373.6Z" fill="#674b90" stroke="#674b90"></path><path d="M139.5 568.4L78.5 765.2L173 750.2Z" fill="#674b90" stroke="#674b90"></path><path d="M167.5 94.9L82.5 299.7L262 300.7Z" fill="#5f4784" stroke="#5f4784"></path><path d="M276 0L173 78.9L316.4 183.9Z" fill="#5c457e" stroke="#5c457e"></path><path d="M0 299.7L0 361.6L82.5 299.7Z" fill="#674b90" stroke="#674b90"></path><path d="M1436.7 825.1L1556.2 825.1L1391.7 750.2Z" fill="#6a4c97" stroke="#6a4c97"></path><path d="M1507.2 622.4L1630.2 502.5L1483.7 426.5Z" fill="#654a8d" stroke="#654a8d"></path><path d="M1700.7 644.4L1630.2 502.5L1507.2 622.4Z" fill="#5e4681" stroke="#5e4681"></path><path d="M1630.2 502.5L1626.2 370.6L1483.7 426.5Z" fill="#63498a" stroke="#63498a"></path><path d="M1639.2 142.9L1559.2 0L1439.7 79.9Z" fill="#6a4c97" stroke="#6a4c97"></path><path d="M0 655.4L78.5 765.2L139.5 568.4Z" fill="#674b90" stroke="#674b90"></path><path d="M0 361.6L181.5 373.6L82.5 299.7Z" fill="#5f4784" stroke="#5f4784"></path><path d="M0 361.6L0 462.5L58.5 495.5Z" fill="#674b90" stroke="#674b90"></path><path d="M58.5 495.5L0 643.2L139.5 568.4Z" fill="#5f4784" stroke="#5f4784"></path><path d="M1556.2 825.1L1648.2 724.2L1507.2 622.4Z" fill="#5a447b" stroke="#5a447b"></path><path d="M1630.2 502.5L1700.7 530.5L1626.2 370.6Z" fill="#5c457e" stroke="#5c457e"></path><path d="M0 299.7L82.5 299.7L0 176.9Z" fill="#5e4681" stroke="#5e4681"></path><path d="M0 825.1L57.5 825.1L78.5 765.2Z" fill="#6a4c97" stroke="#6a4c97"></path><path d="M78.5 765.2L57.5 825.1L179 825.1Z" fill="#5c457e" stroke="#5c457e"></path><path d="M0 462.5L0 643.2L58.5 495.5Z" fill="#5c457e" stroke="#5c457e"></path><path d="M276 0L140.5 0L173 78.9Z" fill="#63498a" stroke="#63498a"></path><path d="M173 78.9L140.5 0L167.5 94.9Z" fill="#5c457e" stroke="#5c457e"></path><path d="M0 643.2L0 655.4L139.5 568.4Z" fill="#6a4c97" stroke="#6a4c97"></path><path d="M0 176.9L82.5 299.7L167.5 94.9Z" fill="#684b94" stroke="#684b94"></path><path d="M1700.7 644.4L1700.7 530.5L1630.2 502.5Z" fill="#614887" stroke="#614887"></path><path d="M1639.2 142.9L1555.2 270.7L1700.7 283.7Z" fill="#5e4681" stroke="#5e4681"></path><path d="M1639.2 142.9L1457.7 245.7L1555.2 270.7Z" fill="#5e4681" stroke="#5e4681"></path><path d="M1700.7 286.6L1555.2 270.7L1626.2 370.6Z" fill="#5f4784" stroke="#5f4784"></path><path d="M1648.2 724.2L1700.7 644.4L1507.2 622.4Z" fill="#5a447b" stroke="#5a447b"></path><path d="M1700.7 530.5L1700.7 286.6L1626.2 370.6Z" fill="#5f4784" stroke="#5f4784"></path><path d="M1700.7 286.6L1700.7 283.7L1555.2 270.7Z" fill="#5f4784" stroke="#5f4784"></path><path d="M1700.7 825.1L1700.7 718.2L1648.2 724.2Z" fill="#654a8d" stroke="#654a8d"></path><path d="M1648.2 724.2L1700.7 718.2L1700.7 644.4Z" fill="#5c457e" stroke="#5c457e"></path><path d="M0 0L0 176.9L167.5 94.9Z" fill="#5c457e" stroke="#5c457e"></path><path d="M0 655.4L0 825.1L78.5 765.2Z" fill="#654a8d" stroke="#654a8d"></path><path d="M1556.2 825.1L1700.7 825.1L1648.2 724.2Z" fill="#5a447b" stroke="#5a447b"></path><path d="M1700.7 283.7L1700.7 139.9L1639.2 142.9Z" fill="#674b90" stroke="#674b90"></path><path d="M1639.2 142.9L1700.7 0L1559.2 0Z" fill="#6a4c97" stroke="#6a4c97"></path><path d="M140.5 0L0 0L167.5 94.9Z" fill="#614887" stroke="#614887"></path><path d="M1700.7 139.9L1700.7 0L1639.2 142.9Z" fill="#63498a" stroke="#63498a"></path></g></svg>